<mxfile host="app.diagrams.net" modified="2023-05-31T05:16:09.725Z" agent="Mozilla/5.0 (Windows NT 10.0; Win64; x64) AppleWebKit/537.36 (KHTML, like Gecko) Chrome/113.0.0.0 Safari/537.36" etag="k9HaebyvU9nd5Y24YFNX" version="21.3.5" type="github">
  <diagram name="Page-1" id="1D5KX33D_a8lEu4agJhq">
    <mxGraphModel dx="2074" dy="1156" grid="1" gridSize="10" guides="1" tooltips="1" connect="1" arrows="1" fold="1" page="1" pageScale="1" pageWidth="850" pageHeight="1100" math="0" shadow="0">
      <root>
        <mxCell id="0" />
        <mxCell id="1" parent="0" />
        <mxCell id="hoc3HuQpEBTv5bTiaDIE-3" value="Token LifyCycle" style="swimlane;childLayout=stackLayout;resizeParent=1;resizeParentMax=0;startSize=20;html=1;" vertex="1" parent="1">
          <mxGeometry x="130" y="80" width="670" height="670" as="geometry" />
        </mxCell>
        <mxCell id="hoc3HuQpEBTv5bTiaDIE-4" value="BO(SMAX)" style="swimlane;startSize=20;html=1;" vertex="1" parent="hoc3HuQpEBTv5bTiaDIE-3">
          <mxGeometry y="20" width="370" height="650" as="geometry" />
        </mxCell>
        <mxCell id="hoc3HuQpEBTv5bTiaDIE-19" style="edgeStyle=orthogonalEdgeStyle;rounded=0;orthogonalLoop=1;jettySize=auto;html=1;exitX=0;exitY=0.5;exitDx=0;exitDy=0;entryX=1;entryY=0.5;entryDx=0;entryDy=0;" edge="1" parent="hoc3HuQpEBTv5bTiaDIE-4" source="hoc3HuQpEBTv5bTiaDIE-8" target="hoc3HuQpEBTv5bTiaDIE-9">
          <mxGeometry relative="1" as="geometry" />
        </mxCell>
        <mxCell id="hoc3HuQpEBTv5bTiaDIE-8" value="Tenant 100000002" style="rounded=1;whiteSpace=wrap;html=1;" vertex="1" parent="hoc3HuQpEBTv5bTiaDIE-4">
          <mxGeometry x="193" y="220" width="125" height="40" as="geometry" />
        </mxCell>
        <mxCell id="hoc3HuQpEBTv5bTiaDIE-18" style="edgeStyle=orthogonalEdgeStyle;rounded=0;orthogonalLoop=1;jettySize=auto;html=1;exitX=0;exitY=0.5;exitDx=0;exitDy=0;entryX=1;entryY=0.75;entryDx=0;entryDy=0;" edge="1" parent="hoc3HuQpEBTv5bTiaDIE-4" source="hoc3HuQpEBTv5bTiaDIE-11" target="hoc3HuQpEBTv5bTiaDIE-9">
          <mxGeometry relative="1" as="geometry">
            <mxPoint x="170" y="290" as="targetPoint" />
          </mxGeometry>
        </mxCell>
        <mxCell id="hoc3HuQpEBTv5bTiaDIE-11" value="Tenant 55550008" style="rounded=1;whiteSpace=wrap;html=1;" vertex="1" parent="hoc3HuQpEBTv5bTiaDIE-4">
          <mxGeometry x="193" y="300" width="125" height="40" as="geometry" />
        </mxCell>
        <mxCell id="hoc3HuQpEBTv5bTiaDIE-9" value="vault" style="rounded=1;whiteSpace=wrap;html=1;" vertex="1" parent="hoc3HuQpEBTv5bTiaDIE-4">
          <mxGeometry x="30" y="260" width="125" height="40" as="geometry" />
        </mxCell>
        <mxCell id="hoc3HuQpEBTv5bTiaDIE-5" value="AIS" style="swimlane;startSize=20;html=1;" vertex="1" parent="hoc3HuQpEBTv5bTiaDIE-3">
          <mxGeometry x="370" y="20" width="300" height="650" as="geometry" />
        </mxCell>
        <mxCell id="hoc3HuQpEBTv5bTiaDIE-14" style="edgeStyle=orthogonalEdgeStyle;rounded=0;orthogonalLoop=1;jettySize=auto;html=1;exitX=0.5;exitY=1;exitDx=0;exitDy=0;entryX=0.5;entryY=0;entryDx=0;entryDy=0;entryPerimeter=0;" edge="1" parent="hoc3HuQpEBTv5bTiaDIE-5" source="hoc3HuQpEBTv5bTiaDIE-7" target="hoc3HuQpEBTv5bTiaDIE-13">
          <mxGeometry relative="1" as="geometry" />
        </mxCell>
        <mxCell id="hoc3HuQpEBTv5bTiaDIE-7" value="Generate/Delete Key" style="rounded=1;whiteSpace=wrap;html=1;" vertex="1" parent="hoc3HuQpEBTv5bTiaDIE-5">
          <mxGeometry x="70" y="30" width="140" height="40" as="geometry" />
        </mxCell>
        <mxCell id="hoc3HuQpEBTv5bTiaDIE-13" value="secret" style="shape=cylinder3;whiteSpace=wrap;html=1;boundedLbl=1;backgroundOutline=1;size=15;" vertex="1" parent="hoc3HuQpEBTv5bTiaDIE-5">
          <mxGeometry x="110" y="110" width="60" height="80" as="geometry" />
        </mxCell>
        <mxCell id="hoc3HuQpEBTv5bTiaDIE-16" style="edgeStyle=orthogonalEdgeStyle;rounded=0;orthogonalLoop=1;jettySize=auto;html=1;exitX=0.75;exitY=1;exitDx=0;exitDy=0;entryX=1;entryY=0.5;entryDx=0;entryDy=0;" edge="1" parent="hoc3HuQpEBTv5bTiaDIE-3" source="hoc3HuQpEBTv5bTiaDIE-7" target="hoc3HuQpEBTv5bTiaDIE-8">
          <mxGeometry relative="1" as="geometry" />
        </mxCell>
        <mxCell id="hoc3HuQpEBTv5bTiaDIE-17" style="edgeStyle=orthogonalEdgeStyle;rounded=0;orthogonalLoop=1;jettySize=auto;html=1;exitX=1;exitY=1;exitDx=0;exitDy=0;entryX=1;entryY=0.5;entryDx=0;entryDy=0;" edge="1" parent="hoc3HuQpEBTv5bTiaDIE-3" source="hoc3HuQpEBTv5bTiaDIE-7" target="hoc3HuQpEBTv5bTiaDIE-11">
          <mxGeometry relative="1" as="geometry" />
        </mxCell>
        <mxCell id="hoc3HuQpEBTv5bTiaDIE-21" style="edgeStyle=orthogonalEdgeStyle;rounded=0;orthogonalLoop=1;jettySize=auto;html=1;exitX=0.5;exitY=1;exitDx=0;exitDy=0;entryX=1;entryY=0.5;entryDx=0;entryDy=0;dashed=1;" edge="1" parent="hoc3HuQpEBTv5bTiaDIE-3" source="hoc3HuQpEBTv5bTiaDIE-8" target="hoc3HuQpEBTv5bTiaDIE-7">
          <mxGeometry relative="1" as="geometry">
            <Array as="points">
              <mxPoint x="256" y="310" />
              <mxPoint x="620" y="310" />
              <mxPoint x="620" y="70" />
            </Array>
          </mxGeometry>
        </mxCell>
        <mxCell id="hoc3HuQpEBTv5bTiaDIE-22" style="edgeStyle=orthogonalEdgeStyle;rounded=0;orthogonalLoop=1;jettySize=auto;html=1;exitX=0.5;exitY=1;exitDx=0;exitDy=0;entryX=1;entryY=0.25;entryDx=0;entryDy=0;dashed=1;" edge="1" parent="hoc3HuQpEBTv5bTiaDIE-3" source="hoc3HuQpEBTv5bTiaDIE-11" target="hoc3HuQpEBTv5bTiaDIE-7">
          <mxGeometry relative="1" as="geometry">
            <Array as="points">
              <mxPoint x="256" y="380" />
              <mxPoint x="640" y="380" />
              <mxPoint x="640" y="60" />
            </Array>
          </mxGeometry>
        </mxCell>
        <mxCell id="hoc3HuQpEBTv5bTiaDIE-23" value="" style="endArrow=none;html=1;rounded=0;" edge="1" parent="1">
          <mxGeometry width="50" height="50" relative="1" as="geometry">
            <mxPoint x="140" y="40" as="sourcePoint" />
            <mxPoint x="200" y="40" as="targetPoint" />
          </mxGeometry>
        </mxCell>
        <mxCell id="hoc3HuQpEBTv5bTiaDIE-24" value="" style="endArrow=none;html=1;rounded=0;dashed=1;" edge="1" parent="1">
          <mxGeometry width="50" height="50" relative="1" as="geometry">
            <mxPoint x="140" y="60" as="sourcePoint" />
            <mxPoint x="200" y="60" as="targetPoint" />
          </mxGeometry>
        </mxCell>
        <mxCell id="hoc3HuQpEBTv5bTiaDIE-25" value="Generate" style="text;html=1;align=center;verticalAlign=middle;resizable=0;points=[];autosize=1;strokeColor=none;fillColor=none;" vertex="1" parent="1">
          <mxGeometry x="210" y="28" width="70" height="30" as="geometry" />
        </mxCell>
        <mxCell id="hoc3HuQpEBTv5bTiaDIE-26" value="Delete" style="text;html=1;align=center;verticalAlign=middle;resizable=0;points=[];autosize=1;strokeColor=none;fillColor=none;" vertex="1" parent="1">
          <mxGeometry x="210" y="50" width="60" height="30" as="geometry" />
        </mxCell>
      </root>
    </mxGraphModel>
  </diagram>
</mxfile>
